<?xml version="1.0" encoding="UTF-8"?>
<svg id="b27d9ef0-53d2-4afb-97db-a8649b3659b2" xmlns="http://www.w3.org/2000/svg" xmlns:xlink="http://www.w3.org/1999/xlink" viewBox="0 0 144 144">
  <defs>
    <style>
      .cls-1 {
        fill: #dda96b;
      }

      .cls-2 {
        fill: #fff;
      }

      .cls-3 {
        fill: #504c3c;
      }

      .cls-4 {
        fill: #ddcca6;
      }

      .cls-5 {
        fill: #0f0b07;
      }

      .cls-6 {
        fill: #f9efd7;
      }

      .cls-7 {
        clip-path: url(#clippath-2);
      }

      .cls-8 {
        fill: #efebd2;
      }

      .cls-9 {
        fill: #a07558;
      }

      .cls-10 {
        fill: #80776c;
      }

      .cls-11 {
        fill: #e8dabc;
      }

      .cls-12 {
        clip-path: url(#clippath-1);
      }

      .cls-13 {
        fill: #bf905c;
      }

      .cls-14 {
        fill: #e4be88;
      }

      .cls-15 {
        fill: #724f35;
      }

      .cls-16 {
        clip-path: url(#clippath);
      }

      .cls-17 {
        fill: none;
      }

      .cls-18 {
        fill: #fdfdff;
      }

      .cls-19 {
        fill: #3a291a;
      }

      .cls-20 {
        fill: #efcca3;
      }

      .cls-21 {
        fill: #261b10;
      }

      .cls-22 {
        fill: #6f634e;
      }
    </style>
    <clipPath id="clippath">
      <path class="cls-14" d="m134.9,136.19H20.91c-3.68-10.67,2.39-31.31,2.39-31.31-14.55-30.02,3.13-49.17,3.13-49.17,2.58-19.52,14-18.97,14-18.97l5.34-4.61c5.34-4.6,2.03-9.02,1.47-18.78s6.82-3.68,6.82-3.68c0,0,5.89,13.81,11.23,15.84,5.34,2.03,26.87,2.45,26.87,2.45,4.14-3.69,8.06-7.61,11.75-11.75,6.79-7.71,11.35-4.44,11.35-4.44,10.02,15.17,2.14,30.31,2.14,30.31,0,0,21.35,23.68,17.5,94.11Z"/>
    </clipPath>
    <clipPath id="clippath-1">
      <path class="cls-17" d="m65.62,61.7s3.76-4.17,7.02-7.24c3.41-3.22,9.82-.71,14.34,4.94,0,0-1.43,6.84-12.74,6.84-7.58,0-8.62-4.54-8.62-4.54Z"/>
    </clipPath>
    <clipPath id="clippath-2">
      <circle class="cls-17" cx="77.32" cy="61.16" r="6.59"/>
    </clipPath>
  </defs>
  <g>
    <path class="cls-14" d="m134.9,136.19H20.91c-3.68-10.67,2.39-31.31,2.39-31.31-14.55-30.02,3.13-49.17,3.13-49.17,2.58-19.52,14-18.97,14-18.97l5.34-4.61c5.34-4.6,2.03-9.02,1.47-18.78s6.82-3.68,6.82-3.68c0,0,5.89,13.81,11.23,15.84,5.34,2.03,26.87,2.45,26.87,2.45,4.14-3.69,8.06-7.61,11.75-11.75,6.79-7.71,11.35-4.44,11.35-4.44,10.02,15.17,2.14,30.31,2.14,30.31,0,0,21.35,23.68,17.5,94.11Z"/>
    <g class="cls-16">
      <g>
        <path class="cls-1" d="m47.75,29.87s8.62-4.62,13.01-5.37c4.39-.75,4.86-1.92,4.86-1.92l-12.06-16.92-8.33,1.01,2.52,23.19Z"/>
        <path class="cls-13" d="m46.65,7.57s5.24.65,5.45,4.2c.21,3.55-1.3,8.01-.35,9.25,1.52,2.03,3.57,5.35,3.57,5.35,0,0,1.7-1.32,5.94-1.95,4.24-.63,6.77-1.28,6.77-1.28l-11.86-16.5-9.53.93Z"/>
        <path class="cls-13" d="m92.17,27.97s-3.25,2.48.95,5.11c3.71,2.31,3.13,2.24,5,3.41s9.95,5.67,10.65,7.29c.69,1.62,1.75,2.42,4.08,3.88,0,0,2.15,1.83,2.5.78.88-2.68,1.16-2.93,2.05-6.34,0,0,3.95-7.94,4.43-15.44.47-7.51-5.88-18.95-10.36-17-4.48,1.95-19.3,18.32-19.3,18.32Z"/>
      </g>
    </g>
  </g>
  <path class="cls-6" d="m125.35,110.81c-4.41-4.01-17.43,11.02-15.22,8.21,2.2-2.81-.23-9.7-3.23-7.53-3.01,2.17-12.26-7.73-.57-15.52,11.69-7.79,5.54-18.86,7.39-24.49,1.85-5.63-4.54-7.35-16.41-8.59-11.87-1.24-6.17.44-12.82,5.51-6.65,5.07-11.87,4.06-11.87,4.06-1.27-2.76-8.03-.82-10.14-1.95-2.11-1.13-11.72-.83-14.71,0-2.99.83-5.77-1.6-9.94-2.79-6.82-1.94-4.3-10.39-2.96-13.78,1.35-3.39-1.34-3.47-4.74-2.44-.98.3-2.21,1.37-3.46,2.74-.08.48-.15.97-.22,1.47,0,0-17.68,19.15-3.13,49.17,0,0-6.08,20.64-2.39,31.31h111.1c3.76-9.15-2.57-21.67-6.66-25.39Z"/>
  <path class="cls-20" d="m59.16,52.13s3.65-5.83,10.05-7.82c2.28-.71,14.94,7.58,16.5,10.92,1.56,3.34-4.9,9.04-4.9,9.04l-14.49-3.44s-1.81,16.19-10.05,18.72c-8.25,2.52-9.69-1.43-9.69-1.43,0,0-23.02-3.86-13.21-8.95,9.81-5.09,14.23-14.38,14.23-14.38,0,0-1.91-2.93-4.82-2.71-2.9.22,2.45-10.42,2.45-10.42,0,0,3.62-2.19,6.3-2.41,4.68-.38,4.4,12.25,4.4,12.25l3.24.63Z"/>
  <path class="cls-8" d="m72,46.3s-18.05,10.28-4.16,13.11l8.92-4.85,10.21,4.84s-3.19-15.55-14.97-13.1Z"/>
  <path class="cls-6" d="m39.3,55.31s-2.83-10.58,8.24-15.29c11.07-4.71.05,13.39-.37,15.87-.43,2.48-12.69,5.83-5.24-6.69"/>
  <path class="cls-22" d="m37.81,54.55s-.84,4.67,6.08,5.09l3.12-3.38-9.21-1.7Z"/>
  <path class="cls-5" d="m37.81,53.74s.64-6.26,6.74-5.38c6.1.88,1.71,8.34,1.05,8.89-.66.55-7.36,3.18-7.8-3.51Z"/>
  <ellipse class="cls-18" cx="43.33" cy="53.94" rx="4.01" ry="4.24" transform="translate(-1.97 1.64) rotate(-2.12)"/>
  <path class="cls-3" d="m46.77,56.52c-1.39,1.65-3.98,1.58-5.39-.08-1.41-1.67-1.43-4.35-.04-6,1.39-1.65,4.06-1.79,5.46-.13,1.4,1.66,1.37,4.56-.02,6.21Z"/>
  <circle class="cls-21" cx="44.79" cy="52.84" r="2.97"/>
  <path class="cls-2" d="m40.99,50.82c.11-.28.99-.21,1.98.16.99.37,1.7.91,1.59,1.19-.11.28-.99.21-1.98-.16-.99-.37-1.7-.91-1.59-1.19Z"/>
  <path class="cls-22" d="m86.98,59.64s-1.62,9.17-13.63,7.69c0,0-5.94.02-7.48-4.98l19.47-4.07,1.64,1.36Z"/>
  <g class="cls-12">
    <g>
      <path class="cls-5" d="m65.62,61.7s3.76-4.17,7.02-7.24c3.41-3.22,9.82-.71,14.34,4.94,0,0-1.43,6.84-12.74,6.84-7.58,0-8.62-4.54-8.62-4.54Z"/>
      <circle class="cls-18" cx="77.32" cy="61.16" r="6.59"/>
      <g class="cls-7">
        <g>
          <circle class="cls-3" cx="79.22" cy="61.35" r="5.28"/>
          <circle class="cls-21" cx="80.95" cy="61.04" r="3.5"/>
          <path class="cls-2" d="m75.11,57.18c.16-.42,1.22-.4,2.38.04,1.16.44,1.97,1.13,1.81,1.55-.16.42-1.22.4-2.38-.04s-1.97-1.13-1.81-1.55Z"/>
        </g>
      </g>
    </g>
  </g>
  <path class="cls-10" d="m45.23,86.42c-.06-2.24-.67-3.78-1.67-4.82-1.03-1.08-13.41-4.97-13.41-4.97,0,0-3.57,5.24,0,12.06l3.67,6.98s1.77,3.63,15.78,3.28c14.01-.35,17.74-6.83,17.74-6.83,0,0-.53-2.22-5.32-.44-4.79,1.77-8.2,2.24-10.45,2.08-4.28-.29-6.34-3.24-6.34-3.24v-4.1Z"/>
  <path class="cls-19" d="m30.11,71.89s1.88-5.24,10.05-3.98c8.17,1.26,8.8,5.03,8.8,5.03,0,0,2.51,10.9-11.73,10.9,0,0-7.12-1.46-7.12-8.08v-3.87Z"/>
  <path class="cls-21" d="m31.87,73.47s.51-1.56,1.77-.83c1.27.73,1.66,3.74.62,3.95-1.17.23-1.36-.52-2.4-3.12Z"/>
  <path class="cls-21" d="m44.55,77.57c-.61.41-1.34.6-2.07.52-1.24-.18-4.31-1.31-2.56-4.14,0,0,.51-.96,1.45-.76.95.2,1.79,1.55,1.91,4.1.39.2.82.29,1.26.28Z"/>
  <path class="cls-15" d="m33.36,70.81c1.45-.01,2.89.05,4.33.19,2.47.22,5.15.56,7.38,1.72.36.19.68-.35.32-.54-2.26-1.17-4.91-1.54-7.41-1.77-1.53-.15-3.07-.23-4.61-.21-.17,0-.31.14-.31.31,0,.17.14.31.31.31h0Z"/>
  <path class="cls-21" d="m36.63,83.67s-.42-8.83.02-8.39c.44.44.58,8.56.58,8.56l-.6-.17Z"/>
  <path class="cls-21" d="m31.87,88.21s4,.35,4.97-.71c0,0,6.04,3.63,8.39,3.01,0,0,4.2,3.55,8.73,2.84,3.11-.52,6.2-1.21,9.24-2.07,0,0-5.78,3.04-12.43,2.78-6.65-.27-19.06-1.95-18.89-5.85Z"/>
  <path class="cls-14" d="m52.16,82.77c-.18.15-.21.42-.06.6,0,.01.02.02.03.03.19.18.48.2.68.03.18-.15.21-.42.06-.6,0-.01-.02-.02-.03-.03-.19-.19-.48-.2-.68-.03Z"/>
  <path class="cls-14" d="m49.3,84.98c-.18.15-.21.41-.06.6.01.01.02.03.04.04.19.18.48.2.68.03.18-.15.21-.42.06-.6,0-.01-.02-.02-.03-.03-.19-.18-.48-.2-.68-.03Z"/>
  <path class="cls-14" d="m51.2,87.14c-.18.15-.21.42-.05.61,0,.01.02.02.03.03.19.18.48.19.68.03.18-.15.21-.42.06-.6,0-.01-.02-.02-.03-.03-.19-.18-.48-.2-.68-.03Z"/>
  <path class="cls-14" d="m51.68,89.81c-.18.15-.21.42-.05.61,0,0,.02.02.02.03.19.18.48.19.68.03.18-.15.21-.42.05-.61,0,0-.02-.02-.02-.03-.19-.18-.48-.19-.68-.03Z"/>
  <path class="cls-14" d="m54.82,85.87c-.18.15-.21.42-.06.6,0,.01.02.02.03.03.19.18.48.19.68.03.18-.15.21-.42.06-.6,0-.01-.02-.02-.03-.03-.19-.18-.48-.19-.68-.03Z"/>
  <path class="cls-14" d="m49.57,82.48c-.06-.23-.29-.36-.51-.31-.02,0-.03,0-.05.02-.24.09-.38.35-.31.61.06.23.29.36.51.31.02,0,.03,0,.05-.02.24-.09.38-.35.31-.61Z"/>
  <path class="cls-14" d="m47.97,88.59c-.06-.23-.29-.37-.52-.31-.01,0-.03,0-.04.01-.25.09-.38.35-.31.61.06.23.29.37.52.3.01,0,.03,0,.04-.01.24-.09.38-.35.31-.61Z"/>
  <path class="cls-14" d="m59.14,85.6c-.06-.23-.29-.36-.52-.31-.01,0-.03,0-.04.01-.24.09-.38.35-.31.6.06.23.29.37.52.3.01,0,.03,0,.04-.01.24-.09.38-.35.31-.6Z"/>
  <path class="cls-14" d="m57.15,83.32c-.06-.23-.3-.36-.52-.3-.01,0-.03,0-.04.01-.24.09-.38.35-.31.6.06.23.29.36.52.31.01,0,.03,0,.04-.01.24-.09.38-.35.31-.6Z"/>
  <path class="cls-14" d="m55.1,89.06c-.06-.23-.29-.37-.52-.31-.01,0-.03,0-.04.01-.24.09-.38.35-.31.61.06.23.3.36.52.3.01,0,.03,0,.04-.01.24-.09.38-.35.31-.6Z"/>
  <path class="cls-14" d="m25.97,81.23c-.18.15-.21.41-.06.6.01.01.02.03.04.04.19.18.48.2.68.03.18-.15.21-.42.06-.6,0-.01-.02-.02-.03-.03-.19-.18-.48-.2-.68-.03Z"/>
  <path class="cls-14" d="m21.89,83.88c-.18.15-.21.42-.06.6,0,.01.02.02.03.03.19.18.48.2.68.03.18-.15.21-.41.06-.6-.01-.01-.02-.03-.04-.04-.19-.18-.48-.2-.68-.03Z"/>
  <path class="cls-14" d="m24.83,86.03c-.18.15-.21.42-.06.6,0,.01.02.02.03.03.19.18.48.19.68.03.18-.15.21-.42.06-.6,0-.01-.02-.02-.03-.03-.19-.18-.48-.19-.68-.03Z"/>
  <path class="cls-14" d="m24.28,88.72c-.18.15-.21.42-.06.6,0,.01.02.02.03.03.19.18.48.19.68.03.18-.15.21-.42.06-.6,0-.01-.02-.02-.03-.03-.19-.18-.48-.19-.68-.03Z"/>
  <path class="cls-14" d="m26.45,84.53c-.18.15-.21.42-.06.6,0,.01.02.02.03.03.19.18.48.19.68.03.18-.15.21-.42.06-.6,0-.01-.02-.02-.03-.03-.19-.18-.48-.19-.68-.03Z"/>
  <path class="cls-14" d="m22.17,81.38c-.06-.23-.29-.36-.51-.31-.02,0-.03,0-.05.02-.25.09-.38.35-.31.61.06.23.29.36.52.31.02,0,.03,0,.05-.01.24-.09.38-.35.31-.61Z"/>
  <path class="cls-14" d="m28.55,89.82c-.06-.23-.29-.36-.52-.31-.01,0-.03,0-.04.01-.24.09-.38.35-.31.61.06.23.29.37.52.32.02,0,.03,0,.05-.01.25-.09.39-.36.31-.62Z"/>
  <path class="cls-4" d="m83.47,86.01c-7.41-1.54-15.25-1.91-22.81-1.8-.3,0-.4.35-.05.35,7.52-.1,15.33.28,22.69,1.8.25.06.53-.27.18-.34h-.01Z"/>
  <path class="cls-4" d="m73.86,87.48c-4.21-.99-8.67-1.22-12.97-1.16-.17,0-.23.23-.03.22,4.27-.07,8.71.18,12.89,1.16.15.04.3-.18.1-.22Z"/>
  <path class="cls-4" d="m77.56,92.29c-6.49-2.28-13.55-3.56-20.43-4.38-.27-.03-.42.27-.09.31,6.84.81,13.86,2.09,20.3,4.36.23.08.52-.19.22-.29Z"/>
  <path class="cls-4" d="m81.56,77.14c-7.53.98-15.18,2.92-22.44,5.11-.29.09-.3.36.04.25,7.22-2.18,14.83-4.1,22.3-5.07.25-.04.44-.34.09-.3h0Z"/>
  <path class="cls-4" d="m71.93,94.98c-4.47-2.47-9.53-4-14.52-5.07-.2-.04-.35.25-.12.3,4.96,1.06,9.99,2.58,14.45,5.04.16.09.42-.16.21-.28h-.01Z"/>
  <path class="cls-4" d="m8.75,81.97c5.14-1.54,10.59-1.91,15.85-1.8.21,0,.28.35.03.35-5.22-.1-10.65.28-15.75,1.8-.18.06-.37-.27-.13-.34h0Z"/>
  <path class="cls-4" d="m15.43,83.43c2.92-.99,6.02-1.22,9-1.16.12,0,.16.23.02.22-2.97-.07-6.04.18-8.95,1.16-.1.04-.21-.18-.07-.22Z"/>
  <path class="cls-4" d="m9.57,91.26c4.51-2.28,9.41-3.56,14.19-4.38.19-.03.29.27.07.31-4.74.81-9.63,2.09-14.1,4.36-.16.08-.36-.19-.15-.29h-.01Z"/>
  <path class="cls-4" d="m10.08,73.09c5.23.98,10.54,2.92,15.58,5.11.2.09.21.36-.03.25-5.01-2.18-10.3-4.1-15.49-5.07-.18-.04-.3-.34-.06-.3h0Z"/>
  <path class="cls-4" d="m14.9,96.47c3.1-2.47,6.62-4,10.08-5.07.14-.04.25.25.08.3-3.44,1.07-6.94,2.59-10.02,5.05-.11.09-.29-.16-.14-.28Z"/>
  <path class="cls-11" d="m27.79,103.15s10.08,18.53,31.26,16.34c21.18-2.19,35.19-9.75,35.19-9.75,0,0,2.53,19.7-37.06,17.53-35.42-1.94-29.39-24.12-29.39-24.12Z"/>
  <path class="cls-1" d="m95.57,34.73l8.27-13.66s5.58-6.69,7.64-7.64c2.06-.95,2.69,1.42,3.96,3.48,1.27,2.06,4.56,10.84,1.01,19.83-1.38,3.43-3.24,6.65-5.53,9.55l-15.35-11.57Z"/>
  <path class="cls-9" d="m100.66,38.56s5.8-12.67,9.07-14.15c3.27-1.48,3.45,4.91,2.85,7.14-.6,2.23-4.56,12.5-4.56,12.5l-7.37-5.48Z"/>
  <path class="cls-1" d="m68.14,33.68c-2.97,2.35-5.91,5.07-8.06,8.2-.67.98-1.3,2.06-1.52,3.24-.15.79,1.06,1.13,1.21.33.4-2.1,2.05-3.93,3.43-5.46,1.49-1.62,3.08-3.14,4.76-4.56.35-.3.7-.6,1.06-.88.63-.51-.25-1.39-.89-.89h0Z"/>
  <path class="cls-1" d="m121.59,58.75c1.01,3.71,1.44,7.66,1.58,11.5.28,7.67-.95,15.65-5.01,22.27-2.75,4.48-6.71,7.99-11.36,10.39-.72.37-.08,1.46.64,1.09,4.31-2.2,8.03-5.41,10.83-9.36,2.42-3.45,4.06-7.42,5.02-11.52,1.57-6.69,1.49-13.74.39-20.5-.21-1.42-.5-2.83-.87-4.21-.21-.78-1.43-.45-1.21.33h0Z"/>
</svg>