<svg xmlns="http://www.w3.org/2000/svg" xmlns:xlink="http://www.w3.org/1999/xlink" width="238.042" height="241.167" viewBox="0 0 238.042 241.167">
  <defs>
    <clipPath id="clip-path">
      <path id="Tracé_70" data-name="Tracé 70" d="M237.973,248.966H23.856c-6.912-20.042,4.489-58.812,4.489-58.812-27.33-56.389,5.879-92.36,5.879-92.36,4.846-36.666,26.3-35.633,26.3-35.633L70.553,53.5c10.031-8.641,3.813-16.943,2.761-35.276s12.811-6.912,12.811-6.912,11.064,25.94,21.094,29.754,50.472,4.6,50.472,4.6A271.9,271.9,0,0,0,179.762,23.6c12.754-14.482,21.32-8.34,21.32-8.34,18.821,28.5,4.02,56.934,4.02,56.934S245.2,116.672,237.973,248.966Z" transform="translate(-17.556 -7.799)" fill="#e4be88"/>
    </clipPath>
    <clipPath id="clip-path-2">
      <path id="Tracé_82" data-name="Tracé 82" d="M65.62,69.308s7.063-7.833,13.186-13.6c6.405-6.048,18.446-1.334,26.936,9.279,0,0-2.686,12.848-23.931,12.848-14.238,0-16.192-8.528-16.192-8.528Z" transform="translate(-65.62 -53.039)" fill="none"/>
    </clipPath>
    <clipPath id="clip-path-3">
      <circle id="Ellipse_12" data-name="Ellipse 12" cx="12.379" cy="12.379" r="12.379" fill="none"/>
    </clipPath>
  </defs>
  <g id="illustration1" transform="translate(-8.637 -7.799)">
    <g id="Groupe_12" data-name="Groupe 12" transform="translate(25.39 7.799)">
      <path id="Tracé_66" data-name="Tracé 66" d="M237.973,248.966H23.856c-6.912-20.042,4.489-58.812,4.489-58.812-27.33-56.389,5.879-92.36,5.879-92.36,4.846-36.666,26.3-35.633,26.3-35.633L70.553,53.5c10.031-8.641,3.813-16.943,2.761-35.276s12.811-6.912,12.811-6.912,11.064,25.94,21.094,29.754,50.472,4.6,50.472,4.6A271.9,271.9,0,0,0,179.762,23.6c12.754-14.482,21.32-8.34,21.32-8.34,18.821,28.5,4.02,56.934,4.02,56.934S245.2,116.672,237.973,248.966Z" transform="translate(-17.556 -7.799)" fill="#e4be88"/>
      <g id="Groupe_11" data-name="Groupe 11" clip-path="url(#clip-path)">
        <g id="Groupe_10" data-name="Groupe 10" transform="translate(51.983 -4.018)">
          <path id="Tracé_67" data-name="Tracé 67" d="M49.964,51.136S66.155,42.457,74.4,41.049s9.129-3.606,9.129-3.606L60.877,5.66,45.23,7.557l4.734,43.56Z" transform="translate(-45.23 -5.66)" fill="#dda96b"/>
          <path id="Tracé_68" data-name="Tracé 68" d="M46.659,8.387S56.5,9.608,56.9,16.276s-2.442,15.046-.657,17.375C59.094,37.464,62.944,43.7,62.944,43.7s3.193-2.479,11.158-3.663,12.717-2.4,12.717-2.4L64.541,6.64,46.64,8.387Z" transform="translate(-43.991 -4.799)" fill="#bf905c"/>
          <path id="Tracé_69" data-name="Tracé 69" d="M93.223,44.247s-6.1,4.658,1.784,9.6c6.969,4.339,5.879,4.208,9.392,6.405s18.69,10.65,20,13.693c1.3,3.043,3.287,4.546,7.664,7.288,0,0,4.039,3.437,4.7,1.465,1.653-5.034,2.179-5.5,3.851-11.909,0,0,7.42-14.914,8.321-29,.883-14.107-11.045-35.6-19.46-31.932S93.223,44.265,93.223,44.265Z" transform="translate(-5.052 -2.34)" fill="#bf905c"/>
        </g>
      </g>
    </g>
    <path id="Tracé_71" data-name="Tracé 71" d="M220.017,163.416c-8.284-7.532-32.74,20.7-28.589,15.421,4.132-5.278-.432-18.22-6.067-14.144-5.654,4.076-23.029-14.52-1.071-29.152s10.406-35.426,13.881-46S189.643,75.733,167.347,73.4s-11.59.826-24.081,10.35-22.3,7.626-22.3,7.626c-2.386-5.184-15.083-1.54-19.047-3.663s-22.015-1.559-27.631,0-10.838-3.005-18.671-5.241c-12.811-3.644-8.077-19.516-5.56-25.884,2.536-6.368-2.517-6.518-8.9-4.583-1.841.564-4.151,2.573-6.5,5.147-.15.9-.282,1.822-.413,2.761,0,0-33.21,35.971-5.879,92.36,0,0-11.421,38.77-4.489,58.812H232.564c7.063-17.187-4.827-40.7-12.51-47.692Z" transform="translate(7.852 37.877)" fill="#f9efd7"/>
    <path id="Tracé_72" data-name="Tracé 72" d="M83.951,63.451S90.807,52.5,102.829,48.762c4.283-1.334,28.063,14.238,30.993,20.512s-9.2,16.981-9.2,16.981L97.4,79.793S94,110.2,78.522,114.956c-15.5,4.734-18.2-2.686-18.2-2.686s-43.24-7.251-24.813-16.811S62.237,68.447,62.237,68.447s-3.588-5.5-9.054-5.09c-5.447.413,4.6-19.573,4.6-19.573s6.8-4.114,11.834-4.527c8.791-.714,8.265,23.01,8.265,23.01l6.086,1.183Z" transform="translate(19.588 27.619)" fill="#efcca3"/>
    <path id="Tracé_73" data-name="Tracé 73" d="M80.268,46.53s-33.9,19.31-7.814,24.626l16.755-9.11,19.178,9.091S102.4,41.928,80.268,46.53Z" transform="translate(47.389 33.589)" fill="#efebd2"/>
    <path id="Tracé_74" data-name="Tracé 74" d="M39.585,69.424S34.269,49.551,55.062,40.7s.094,25.152-.695,29.81c-.808,4.658-23.837,10.951-9.843-12.566" transform="translate(26.649 27.619)" fill="#f9efd7"/>
    <path id="Tracé_75" data-name="Tracé 75" d="M37.838,54.55s-1.578,8.772,11.421,9.561l5.861-6.349-17.3-3.193Z" transform="translate(25.597 41.065)" fill="#6f634e"/>
    <path id="Tracé_76" data-name="Tracé 76" d="M37.819,58.54s1.2-11.759,12.66-10.106,3.212,15.666,1.972,16.7S38.626,71.107,37.8,58.54Z" transform="translate(25.616 35.554)" fill="#0f0b07"/>
    <ellipse id="Ellipse_7" data-name="Ellipse 7" cx="7.532" cy="7.964" rx="7.532" ry="7.964" transform="matrix(0.999, -0.037, 0.037, 0.999, 65.974, 86.79)" fill="#fdfdff"/>
    <path id="Tracé_77" data-name="Tracé 77" d="M52.444,63.01a6.663,6.663,0,0,1-10.124-.15,9.037,9.037,0,0,1-.075-11.27A6.809,6.809,0,0,1,52.5,51.345a9.637,9.637,0,0,1-.038,11.665Z" transform="translate(27.821 36.306)" fill="#504c3c"/>
    <circle id="Ellipse_8" data-name="Ellipse 8" cx="5.579" cy="5.579" r="5.579" transform="translate(70.967 86.824)" fill="#261b10"/>
    <path id="Tracé_78" data-name="Tracé 78" d="M41,50.971c.207-.526,1.86-.394,3.719.3s3.193,1.709,2.987,2.235-1.86.394-3.719-.3S40.793,51.5,41,50.971Z" transform="translate(28.408 37.638)" fill="#fff"/>
    <path id="Tracé_79" data-name="Tracé 79" d="M105.523,60.835s-3.043,17.225-25.6,14.445c0,0-11.158.038-14.05-9.354l36.572-7.645,3.081,2.555Z" transform="translate(50.272 44.342)" fill="#6f634e"/>
    <g id="Groupe_16" data-name="Groupe 16" transform="translate(115.673 92.777)" clip-path="url(#clip-path-2)">
      <g id="Groupe_15" data-name="Groupe 15">
        <path id="Tracé_80" data-name="Tracé 80" d="M65.62,69.308s7.063-7.833,13.186-13.6c6.405-6.048,18.446-1.334,26.936,9.279,0,0-2.686,12.848-23.931,12.848-14.238,0-16.192-8.528-16.192-8.528Z" transform="translate(-65.62 -53.039)" fill="#0f0b07"/>
        <circle id="Ellipse_9" data-name="Ellipse 9" cx="12.379" cy="12.379" r="12.379" transform="translate(9.599 2.876)" fill="#fdfdff"/>
        <g id="Groupe_14" data-name="Groupe 14" transform="translate(9.599 2.876)" clip-path="url(#clip-path-3)">
          <g id="Groupe_13" data-name="Groupe 13" transform="translate(6.03 2.818)">
            <circle id="Ellipse_10" data-name="Ellipse 10" cx="9.918" cy="9.918" r="9.918" fill="#504c3c"/>
            <circle id="Ellipse_11" data-name="Ellipse 11" cx="6.574" cy="6.574" r="6.574" transform="translate(6.593 2.761)" fill="#261b10"/>
            <path id="Tracé_81" data-name="Tracé 81" d="M75.128,57.446c.3-.789,2.292-.751,4.471.075s3.7,2.123,3.4,2.911-2.292.751-4.471-.075S74.827,58.235,75.128,57.446Z" transform="translate(-72.93 -55.361)" fill="#fff"/>
          </g>
        </g>
      </g>
    </g>
    <path id="Tracé_83" data-name="Tracé 83" d="M59.87,95.019c-.113-4.208-1.259-7.1-3.137-9.054C54.8,83.937,31.544,76.63,31.544,76.63s-6.706,9.843,0,22.653l6.894,13.111s3.325,6.819,29.641,6.161S101.4,105.726,101.4,105.726s-1-4.17-9.993-.827c-9,3.325-15.4,4.208-19.629,3.907a16.379,16.379,0,0,1-11.909-6.086v-7.7Z" transform="translate(17.503 60.46)" fill="#80776c"/>
    <path id="Tracé_84" data-name="Tracé 84" d="M30.11,75.558s3.531-9.843,18.878-7.476,16.53,9.448,16.53,9.448S70.232,98,43.484,98c0,0-13.374-2.742-13.374-15.177V75.558Z" transform="translate(18.861 52.629)" fill="#3a291a"/>
    <path id="Tracé_85" data-name="Tracé 85" d="M31.879,74.37s.958-2.93,3.325-1.559c2.386,1.371,3.118,7.025,1.165,7.42-2.2.432-2.555-.977-4.508-5.861Z" transform="translate(20.399 56.784)" fill="#261b10"/>
    <path id="Tracé_86" data-name="Tracé 86" d="M49.079,81.441a5.831,5.831,0,0,1-3.888.977c-2.329-.338-8.1-2.461-4.809-7.777a2.688,2.688,0,0,1,2.724-1.428c1.784.376,3.362,2.911,3.588,7.7a4.909,4.909,0,0,0,2.367.526Z" transform="translate(27.016 57.414)" fill="#261b10"/>
    <path id="Tracé_87" data-name="Tracé 87" d="M33.624,71.348a78.312,78.312,0,0,1,8.133.357c4.64.413,9.674,1.052,13.862,3.231.676.357,1.277-.657.6-1.014C51.975,71.724,47,71.029,42.3,70.6a78.365,78.365,0,0,0-8.659-.394.582.582,0,1,0,0,1.165h0Z" transform="translate(21.453 54.809)" fill="#724f35"/>
    <path id="Tracé_88" data-name="Tracé 88" d="M36.789,91.054s-.789-16.586.038-15.76,1.089,16.079,1.089,16.079Z" transform="translate(24.43 59.26)" fill="#261b10"/>
    <path id="Tracé_89" data-name="Tracé 89" d="M31.87,88.834s7.514.657,9.336-1.334c0,0,11.345,6.819,15.76,5.654,0,0,7.889,6.668,16.4,5.335A161.867,161.867,0,0,0,90.72,94.6s-10.857,5.71-23.348,5.222c-12.491-.507-35.8-3.663-35.483-10.989Z" transform="translate(20.407 70.008)" fill="#261b10"/>
    <path id="Tracé_90" data-name="Tracé 90" d="M52.3,82.876A.8.8,0,0,0,52.184,84c0,.019.038.038.056.056a.952.952,0,0,0,1.277.056.8.8,0,0,0,.113-1.127c0-.019-.038-.038-.056-.056A.932.932,0,0,0,52.3,82.876Z" transform="translate(38.093 65.747)" fill="#e4be88"/>
    <path id="Tracé_91" data-name="Tracé 91" d="M49.437,85.074a.8.8,0,0,0-.113,1.127c.019.019.038.056.075.075a.952.952,0,0,0,1.277.056.8.8,0,0,0,.113-1.127c0-.019-.038-.038-.056-.056a.952.952,0,0,0-1.277-.056Z" transform="translate(35.58 67.7)" fill="#e4be88"/>
    <path id="Tracé_92" data-name="Tracé 92" d="M51.336,87.234a.806.806,0,0,0-.094,1.146c0,.019.038.038.056.056a.973.973,0,0,0,1.277.056.8.8,0,0,0,.113-1.127c0-.019-.038-.038-.056-.056a.952.952,0,0,0-1.277-.056Z" transform="translate(37.251 69.598)" fill="#e4be88"/>
    <path id="Tracé_93" data-name="Tracé 93" d="M51.815,89.909a.806.806,0,0,0-.094,1.146s.038.038.038.056a.973.973,0,0,0,1.277.056.806.806,0,0,0,.094-1.146s-.038-.038-.038-.056A.973.973,0,0,0,51.815,89.909Z" transform="translate(37.673 71.938)" fill="#e4be88"/>
    <path id="Tracé_94" data-name="Tracé 94" d="M54.957,85.969a.8.8,0,0,0-.113,1.127c0,.019.038.038.056.056a.973.973,0,0,0,1.277.056.8.8,0,0,0,.113-1.127c0-.019-.038-.038-.056-.056A.973.973,0,0,0,54.957,85.969Z" transform="translate(40.429 68.477)" fill="#e4be88"/>
    <path id="Tracé_95" data-name="Tracé 95" d="M50.35,82.762a.805.805,0,0,0-.958-.582.1.1,0,0,0-.094.038.954.954,0,0,0-.582,1.146.805.805,0,0,0,.958.582.1.1,0,0,0,.094-.038A.954.954,0,0,0,50.35,82.762Z" transform="translate(35.175 65.317)" fill="#e4be88"/>
    <path id="Tracé_96" data-name="Tracé 96" d="M48.751,88.875a.8.8,0,0,0-.977-.582.113.113,0,0,0-.075.019.937.937,0,0,0-.582,1.146.776.776,0,0,0,.977.564A.113.113,0,0,0,48.168,90a.954.954,0,0,0,.582-1.146Z" transform="translate(33.769 70.681)" fill="#e4be88"/>
    <path id="Tracé_97" data-name="Tracé 97" d="M59.92,85.882a.816.816,0,0,0-.977-.582.113.113,0,0,0-.075.019.941.941,0,0,0-.582,1.127.776.776,0,0,0,.977.564.113.113,0,0,0,.075-.019.941.941,0,0,0,.582-1.127Z" transform="translate(43.581 68.057)" fill="#e4be88"/>
    <path id="Tracé_98" data-name="Tracé 98" d="M57.93,83.6a.8.8,0,0,0-.977-.564.113.113,0,0,0-.075.019.941.941,0,0,0-.582,1.127.816.816,0,0,0,.977.582.113.113,0,0,0,.075-.019.941.941,0,0,0,.582-1.127Z" transform="translate(41.833 66.06)" fill="#e4be88"/>
    <path id="Tracé_99" data-name="Tracé 99" d="M55.88,89.345a.8.8,0,0,0-.977-.582.113.113,0,0,0-.075.019.954.954,0,0,0-.582,1.146.8.8,0,0,0,.977.564.113.113,0,0,0,.075-.019.941.941,0,0,0,.582-1.127Z" transform="translate(40.032 71.094)" fill="#e4be88"/>
    <path id="Tracé_100" data-name="Tracé 100" d="M26.107,81.324a.8.8,0,0,0-.113,1.127c.019.019.038.056.075.075a.952.952,0,0,0,1.277.056.8.8,0,0,0,.113-1.127c0-.019-.038-.038-.056-.056a.952.952,0,0,0-1.277-.056Z" transform="translate(15.088 64.406)" fill="#e4be88"/>
    <path id="Tracé_101" data-name="Tracé 101" d="M22.027,83.991a.8.8,0,0,0-.113,1.127c0,.019.038.038.056.056a.952.952,0,0,0,1.277.056.8.8,0,0,0,.113-1.127c-.019-.019-.038-.056-.075-.075a.952.952,0,0,0-1.277-.056Z" transform="translate(11.504 66.717)" fill="#e4be88"/>
    <path id="Tracé_102" data-name="Tracé 102" d="M24.967,86.129a.8.8,0,0,0-.113,1.127c0,.019.038.038.056.056a.973.973,0,0,0,1.277.056.8.8,0,0,0,.113-1.127c0-.019-.038-.038-.056-.056A.973.973,0,0,0,24.967,86.129Z" transform="translate(14.087 68.617)" fill="#e4be88"/>
    <path id="Tracé_103" data-name="Tracé 103" d="M24.417,88.819a.8.8,0,0,0-.113,1.127c0,.019.038.038.056.056a.973.973,0,0,0,1.277.056.8.8,0,0,0,.113-1.127c0-.019-.038-.038-.056-.056A.973.973,0,0,0,24.417,88.819Z" transform="translate(13.603 70.98)" fill="#e4be88"/>
    <path id="Tracé_104" data-name="Tracé 104" d="M26.587,84.629a.8.8,0,0,0-.113,1.127c0,.019.038.038.056.056a.973.973,0,0,0,1.277.056.8.8,0,0,0,.113-1.127c0-.019-.038-.038-.056-.056A.973.973,0,0,0,26.587,84.629Z" transform="translate(15.509 67.3)" fill="#e4be88"/>
    <path id="Tracé_105" data-name="Tracé 105" d="M22.951,81.662a.805.805,0,0,0-.958-.582.1.1,0,0,0-.094.038.937.937,0,0,0-.582,1.146.816.816,0,0,0,.977.582.169.169,0,0,0,.094-.019.954.954,0,0,0,.582-1.146Z" transform="translate(11.106 64.351)" fill="#e4be88"/>
    <path id="Tracé_106" data-name="Tracé 106" d="M29.33,90.1a.816.816,0,0,0-.977-.582.113.113,0,0,0-.075.019.954.954,0,0,0-.582,1.146.828.828,0,0,0,.977.6.169.169,0,0,0,.094-.019.941.941,0,0,0,.582-1.165Z" transform="translate(16.711 71.764)" fill="#e4be88"/>
    <path id="Tracé_107" data-name="Tracé 107" d="M103.745,87.607C89.826,84.714,75.1,84.019,60.9,84.226c-.563,0-.751.657-.094.657,14.125-.188,28.8.526,42.62,3.381.47.113,1-.507.338-.639h-.019Z" transform="translate(45.457 67.102)" fill="#ddcca6"/>
    <path id="Tracé_108" data-name="Tracé 108" d="M85.389,88.507a101.117,101.117,0,0,0-24.363-2.179c-.319,0-.432.432-.056.413A99.888,99.888,0,0,1,85.183,88.92c.282.075.564-.338.188-.413Z" transform="translate(45.761 68.964)" fill="#ddcca6"/>
    <path id="Tracé_109" data-name="Tracé 109" d="M95.75,96.139C83.559,91.856,70.3,89.452,57.375,87.912c-.507-.056-.789.507-.169.582,12.848,1.521,26.034,3.926,38.131,8.19C95.769,96.834,96.314,96.327,95.75,96.139Z" transform="translate(42.351 70.366)" fill="#ddcca6"/>
    <path id="Tracé_110" data-name="Tracé 110" d="M101.461,77.152c-14.144,1.841-28.514,5.485-42.151,9.6-.545.169-.564.676.075.47,13.562-4.095,27.856-7.7,41.888-9.523.47-.075.826-.639.169-.564h0Z" transform="translate(44.153 60.896)" fill="#ddcca6"/>
    <path id="Tracé_111" data-name="Tracé 111" d="M84.891,99.437c-8.4-4.64-17.9-7.514-27.274-9.523-.376-.075-.657.47-.225.564,9.317,1.991,18.765,4.846,27.143,9.467.3.169.789-.3.394-.526H84.91Z" transform="translate(42.634 72.121)" fill="#ddcca6"/>
    <path id="Tracé_112" data-name="Tracé 112" d="M8.849,83.567c9.655-2.893,19.892-3.588,29.772-3.381.394,0,.526.657.056.657-9.805-.188-20,.526-29.584,3.381-.338.113-.695-.507-.244-.639h0Z" transform="translate(0 63.553)" fill="#ddcca6"/>
    <path id="Tracé_113" data-name="Tracé 113" d="M15.488,84.457a49.516,49.516,0,0,1,16.905-2.179c.225,0,.3.432.038.413A48.982,48.982,0,0,0,15.62,84.87C15.432,84.945,15.225,84.532,15.488,84.457Z" transform="translate(5.909 65.406)" fill="#ddcca6"/>
    <path id="Tracé_114" data-name="Tracé 114" d="M9.641,95.109c8.471-4.283,17.676-6.687,26.654-8.227.357-.056.545.507.131.582-8.9,1.521-18.089,3.926-26.485,8.19-.3.15-.676-.357-.282-.545H9.641Z" transform="translate(0.749 69.461)" fill="#ddcca6"/>
    <path id="Tracé_115" data-name="Tracé 115" d="M10.2,73.1c9.824,1.841,19.8,5.485,29.265,9.6.376.169.394.676-.056.47-9.411-4.095-19.347-7.7-29.1-9.523-.338-.075-.564-.639-.113-.564h0Z" transform="translate(1.149 57.338)" fill="#ddcca6"/>
    <path id="Tracé_116" data-name="Tracé 116" d="M14.95,100.927A56.91,56.91,0,0,1,33.884,91.4c.263-.075.47.47.15.564a56.648,56.648,0,0,0-18.821,9.486c-.207.169-.545-.3-.263-.526Z" transform="translate(5.451 73.43)" fill="#ddcca6"/>
    <path id="Tracé_117" data-name="Tracé 117" d="M28.132,103.15s18.934,34.806,58.718,30.693,66.1-18.314,66.1-18.314,4.752,37-69.613,32.928c-66.532-3.644-55.206-45.307-55.206-45.307Z" transform="translate(16.482 83.755)" fill="#e8dabc"/>
    <path id="Tracé_118" data-name="Tracé 118" d="M95.57,53.629,111.1,27.971S121.586,15.4,125.455,13.62s5.053,2.667,7.438,6.537,8.565,20.362,1.9,37.248A72.779,72.779,0,0,1,124.4,75.343L95.57,53.61Z" transform="translate(76.36 4.756)" fill="#dda96b"/>
    <path id="Tracé_119" data-name="Tracé 119" d="M100.669,51.182s10.895-23.8,17.037-26.579,6.48,9.223,5.353,13.412-8.565,23.48-8.565,23.48L100.65,51.2Z" transform="translate(80.822 14.398)" fill="#a07558"/>
    <path id="Tracé_120" data-name="Tracé 120" d="M76.566,33.828c-5.579,4.414-11.1,9.523-15.14,15.4a16.462,16.462,0,0,0-2.855,6.086c-.282,1.484,1.991,2.123,2.273.62.751-3.945,3.851-7.382,6.443-10.256a98.72,98.72,0,0,1,8.941-8.565c.657-.564,1.315-1.127,1.991-1.653,1.183-.958-.47-2.611-1.672-1.672h0Z" transform="translate(43.84 22.585)" fill="#dda96b"/>
    <path id="Tracé_121" data-name="Tracé 121" d="M134.858,59.44a96.227,96.227,0,0,1,2.968,21.6c.526,14.407-1.784,29.4-9.411,41.832a53.667,53.667,0,0,1-21.338,19.516c-1.352.7-.15,2.742,1.2,2.047a56.318,56.318,0,0,0,20.343-17.582,62.431,62.431,0,0,0,9.429-21.639c2.949-12.566,2.8-25.809.733-38.507A70.283,70.283,0,0,0,137.15,58.8a1.179,1.179,0,0,0-2.273.62h0Z" transform="translate(85.947 44.064)" fill="#dda96b"/>
  </g>
</svg>
