<svg id="illustration2" xmlns="http://www.w3.org/2000/svg" xmlns:xlink="http://www.w3.org/1999/xlink" width="238.042" height="241.167" viewBox="0 0 238.042 241.167">
  <defs>
    <clipPath id="clip-path">
      <path id="Tracé_70" data-name="Tracé 70" d="M18.428,248.966H232.545c6.912-20.042-4.489-58.812-4.489-58.812,27.33-56.389-5.879-92.36-5.879-92.36-4.846-36.666-26.3-35.633-26.3-35.633L185.848,53.5c-10.031-8.641-3.813-16.943-2.761-35.276s-12.811-6.912-12.811-6.912-11.064,25.94-21.094,29.754-50.472,4.6-50.472,4.6A271.9,271.9,0,0,1,76.639,23.6c-12.754-14.482-21.32-8.34-21.32-8.34C36.5,43.753,51.3,72.192,51.3,72.192S11.2,116.672,18.428,248.966Z" transform="translate(-17.556 -7.799)" fill="#e4be88"/>
    </clipPath>
    <clipPath id="clip-path-2">
      <path id="Tracé_82" data-name="Tracé 82" d="M105.742,69.308s-7.063-7.833-13.186-13.6C86.151,49.66,74.11,54.374,65.62,64.987c0,0,2.686,12.848,23.931,12.848,14.238,0,16.192-8.528,16.192-8.528Z" transform="translate(-65.62 -53.039)" fill="none"/>
    </clipPath>
    <clipPath id="clip-path-3">
      <ellipse id="Ellipse_12" data-name="Ellipse 12" cx="12.379" cy="12.379" rx="12.379" ry="12.379" fill="none"/>
    </clipPath>
  </defs>
  <g id="Groupe_12" data-name="Groupe 12" transform="translate(0 0)">
    <path id="Tracé_66" data-name="Tracé 66" d="M18.428,248.966H232.545c6.912-20.042-4.489-58.812-4.489-58.812,27.33-56.389-5.879-92.36-5.879-92.36-4.846-36.666-26.3-35.633-26.3-35.633L185.848,53.5c-10.031-8.641-3.813-16.943-2.761-35.276s-12.811-6.912-12.811-6.912-11.064,25.94-21.094,29.754-50.472,4.6-50.472,4.6A271.9,271.9,0,0,1,76.639,23.6c-12.754-14.482-21.32-8.34-21.32-8.34C36.5,43.753,51.3,72.192,51.3,72.192S11.2,116.672,18.428,248.966Z" transform="translate(-17.556 -7.799)" fill="#e4be88"/>
    <g id="Groupe_11" data-name="Groupe 11" clip-path="url(#clip-path)">
      <g id="Groupe_10" data-name="Groupe 10" transform="translate(25.377 -4.018)">
        <path id="Tracé_67" data-name="Tracé 67" d="M78.8,51.136S62.605,42.458,54.359,41.049s-9.129-3.606-9.129-3.606L67.883,5.66l15.647,1.9L78.8,51.117Z" transform="translate(60.4 -5.66)" fill="#dda96b"/>
        <path id="Tracé_68" data-name="Tracé 68" d="M86.8,8.387s-9.843,1.221-10.237,7.889S79,31.322,77.22,33.651C74.365,37.464,70.514,43.7,70.514,43.7s-3.193-2.479-11.158-3.663-12.717-2.4-12.717-2.4L68.918,6.64l17.9,1.747Z" transform="translate(54.463 -4.799)" fill="#bf905c"/>
        <path id="Tracé_69" data-name="Tracé 69" d="M146.73,44.247s6.1,4.658-1.784,9.6c-6.969,4.339-5.879,4.208-9.392,6.405s-18.69,10.65-20,13.693c-1.3,3.043-3.287,4.546-7.664,7.288,0,0-4.039,3.437-4.7,1.465-1.653-5.034-2.179-5.5-3.851-11.909,0,0-7.42-14.914-8.321-29-.883-14.107,11.045-35.6,19.46-31.932S146.73,44.265,146.73,44.265Z" transform="translate(-90.971 -2.34)" fill="#bf905c"/>
      </g>
    </g>
  </g>
  <path id="Tracé_71" data-name="Tracé 71" d="M32.281,163.416c8.284-7.532,32.74,20.7,28.589,15.422-4.132-5.278.432-18.22,6.067-14.144,5.654,4.076,23.029-14.52,1.071-29.152s-10.406-35.426-13.881-46S62.654,75.733,84.95,73.4s11.59.826,24.081,10.35,22.3,7.626,22.3,7.626c2.386-5.184,15.083-1.54,19.047-3.663s22.015-1.559,27.631,0,10.838-3.005,18.671-5.241c12.811-3.644,8.077-19.516,5.56-25.884-2.536-6.368,2.517-6.518,8.9-4.583,1.841.564,4.151,2.573,6.5,5.147.15.9.282,1.822.413,2.761,0,0,33.21,35.971,5.879,92.36,0,0,11.421,38.77,4.489,58.812H19.733c-7.063-17.187,4.827-40.7,12.51-47.692Z" transform="translate(-13.47 30.078)" fill="#f9efd7"/>
  <path id="Tracé_72" data-name="Tracé 72" d="M81.264,63.451S74.408,52.5,62.387,48.762C58.1,47.428,34.323,63,31.393,69.274s9.2,16.981,9.2,16.981l27.218-6.462s3.4,30.411,18.878,35.163c15.5,4.734,18.2-2.686,18.2-2.686s43.24-7.251,24.813-16.812-26.729-27.011-26.729-27.011,3.588-5.5,9.054-5.09c5.447.413-4.6-19.573-4.6-19.573s-6.8-4.114-11.834-4.527c-8.791-.714-8.265,23.01-8.265,23.01l-6.086,1.183Z" transform="translate(61.877 19.82)" fill="#efcca3"/>
  <path id="Tracé_73" data-name="Tracé 73" d="M90.706,46.53s33.9,19.31,7.814,24.626l-16.755-9.11L62.587,71.137S68.579,41.928,90.706,46.53Z" transform="translate(28.316 25.79)" fill="#efebd2"/>
  <path id="Tracé_74" data-name="Tracé 74" d="M63.691,69.424S69.007,49.551,48.213,40.7s-.094,25.152.695,29.81c.808,4.658,23.837,10.951,9.843-12.566" transform="translate(116.755 19.82)" fill="#f9efd7"/>
  <path id="Tracé_75" data-name="Tracé 75" d="M55.059,54.55s1.578,8.772-11.421,9.561l-5.861-6.349,17.3-3.193Z" transform="translate(128.185 33.266)" fill="#6f634e"/>
  <path id="Tracé_76" data-name="Tracé 76" d="M56.462,58.54s-1.2-11.759-12.66-10.106-3.212,15.666-1.972,16.7S55.654,71.107,56.48,58.54Z" transform="translate(126.783 27.755)" fill="#0f0b07"/>
  <ellipse id="Ellipse_7" data-name="Ellipse 7" cx="7.532" cy="7.964" rx="7.532" ry="7.964" transform="translate(180.116 94.909) rotate(-177.88)" fill="#fdfdff"/>
  <path id="Tracé_77" data-name="Tracé 77" d="M42.313,63.01a6.663,6.663,0,0,0,10.124-.15,9.037,9.037,0,0,0,.075-11.27,6.809,6.809,0,0,0-10.256-.244,9.637,9.637,0,0,0,.038,11.665Z" transform="translate(124.101 28.507)" fill="#504c3c"/>
  <ellipse id="Ellipse_8" data-name="Ellipse 8" cx="5.579" cy="5.579" rx="5.579" ry="5.579" transform="translate(164.555 79.026)" fill="#261b10"/>
  <path id="Tracé_78" data-name="Tracé 78" d="M47.706,50.971c-.207-.526-1.86-.394-3.719.3S40.793,52.98,41,53.506s1.86.394,3.719-.3S47.912,51.5,47.706,50.971Z" transform="translate(129.566 29.839)" fill="#fff"/>
  <path id="Tracé_79" data-name="Tracé 79" d="M65.87,60.835s3.043,17.225,25.6,14.445c0,0,11.158.038,14.05-9.354L68.951,58.28,65.87,60.835Z" transform="translate(25.014 36.543)" fill="#6f634e"/>
  <g id="Groupe_16" data-name="Groupe 16" transform="translate(90.884 84.978)" clip-path="url(#clip-path-2)">
    <g id="Groupe_15" data-name="Groupe 15">
      <path id="Tracé_80" data-name="Tracé 80" d="M105.742,69.308s-7.063-7.833-13.186-13.6C86.151,49.66,74.11,54.374,65.62,64.987c0,0,2.686,12.848,23.931,12.848,14.238,0,16.192-8.528,16.192-8.528Z" transform="translate(-65.62 -53.039)" fill="#0f0b07"/>
      <ellipse id="Ellipse_9" data-name="Ellipse 9" cx="12.379" cy="12.379" rx="12.379" ry="12.379" transform="translate(5.767 2.876)" fill="#fdfdff"/>
      <g id="Groupe_14" data-name="Groupe 14" transform="translate(5.767 2.876)" clip-path="url(#clip-path-3)">
        <g id="Groupe_13" data-name="Groupe 13" transform="translate(-1.108 2.818)">
          <ellipse id="Ellipse_10" data-name="Ellipse 10" cx="9.918" cy="9.918" rx="9.918" ry="9.918" fill="#504c3c"/>
          <ellipse id="Ellipse_11" data-name="Ellipse 11" cx="6.574" cy="6.574" rx="6.574" ry="6.574" transform="translate(0.094 2.761)" fill="#261b10"/>
          <path id="Tracé_81" data-name="Tracé 81" d="M83,57.446c-.3-.789-2.292-.751-4.471.075s-3.7,2.123-3.4,2.911,2.292.751,4.471-.075S83.3,58.235,83,57.446Z" transform="translate(-65.36 -55.361)" fill="#fff"/>
        </g>
      </g>
    </g>
  </g>
  <path id="Tracé_83" data-name="Tracé 83" d="M70.094,95.019c.113-4.208,1.259-7.1,3.137-9.054C75.166,83.937,98.42,76.63,98.42,76.63s6.706,9.843,0,22.653l-6.894,13.111s-3.325,6.819-29.641,6.161-33.322-12.829-33.322-12.829,1-4.17,9.993-.827c9,3.325,15.4,4.208,19.629,3.907a16.379,16.379,0,0,0,11.909-6.086v-7.7Z" transform="translate(99.213 52.661)" fill="#80776c"/>
  <path id="Tracé_84" data-name="Tracé 84" d="M65.838,75.558s-3.531-9.843-18.878-7.476S30.43,77.53,30.43,77.53,25.716,98,52.464,98c0,0,13.374-2.742,13.374-15.177V75.558Z" transform="translate(131.87 44.83)" fill="#3a291a"/>
  <path id="Tracé_85" data-name="Tracé 85" d="M37.471,74.37s-.958-2.93-3.325-1.559c-2.386,1.371-3.118,7.025-1.165,7.42,2.2.432,2.555-.977,4.508-5.861Z" transform="translate(156.931 48.985)" fill="#261b10"/>
  <path id="Tracé_86" data-name="Tracé 86" d="M39.394,81.441a5.831,5.831,0,0,0,3.888.977c2.329-.338,8.1-2.461,4.809-7.777a2.688,2.688,0,0,0-2.724-1.428c-1.784.376-3.362,2.912-3.588,7.7a4.909,4.909,0,0,1-2.367.526Z" transform="translate(131.191 49.615)" fill="#261b10"/>
  <path id="Tracé_87" data-name="Tracé 87" d="M55.953,71.348a78.312,78.312,0,0,0-8.133.357c-4.64.413-9.674,1.052-13.862,3.231-.676.357-1.277-.657-.6-1.014,4.245-2.2,9.223-2.893,13.919-3.325a78.365,78.365,0,0,1,8.659-.394.582.582,0,1,1,0,1.165h0Z" transform="translate(135.65 47.01)" fill="#724f35"/>
  <path id="Tracé_88" data-name="Tracé 88" d="M37.576,91.054s.789-16.586-.038-15.76-1.089,16.079-1.089,16.079Z" transform="translate(147.885 51.461)" fill="#261b10"/>
  <path id="Tracé_89" data-name="Tracé 89" d="M90.72,88.834s-7.514.657-9.336-1.334c0,0-11.345,6.819-15.76,5.654,0,0-7.889,6.668-16.4,5.335A161.867,161.867,0,0,1,31.87,94.6s10.857,5.71,23.348,5.222c12.491-.507,35.8-3.663,35.483-10.989Z" transform="translate(103.682 62.209)" fill="#261b10"/>
  <path id="Tracé_90" data-name="Tracé 90" d="M53.518,82.876A.8.8,0,0,1,53.631,84c0,.019-.038.038-.056.056a.952.952,0,0,1-1.277.056.8.8,0,0,1-.113-1.127c0-.019.038-.038.056-.056A.932.932,0,0,1,53.518,82.876Z" transform="translate(102.772 57.949)" fill="#e4be88"/>
  <path id="Tracé_91" data-name="Tracé 91" d="M50.677,85.074A.8.8,0,0,1,50.79,86.2c-.019.019-.038.056-.075.075a.952.952,0,0,1-1.277.056.8.8,0,0,1-.113-1.127c0-.019.038-.038.056-.056a.952.952,0,0,1,1.277-.056Z" transform="translate(110.985 59.902)" fill="#e4be88"/>
  <path id="Tracé_92" data-name="Tracé 92" d="M52.579,87.234a.806.806,0,0,1,.094,1.146c0,.019-.038.038-.056.056a.973.973,0,0,1-1.277.056.8.8,0,0,1-.113-1.127c0-.019.038-.038.056-.056a.952.952,0,0,1,1.277-.056Z" transform="translate(105.514 61.799)" fill="#e4be88"/>
  <path id="Tracé_93" data-name="Tracé 93" d="M53.036,89.909a.806.806,0,0,1,.094,1.146s-.038.038-.038.056a.973.973,0,0,1-1.277.056.806.806,0,0,1-.094-1.146s.038-.038.038-.056A.973.973,0,0,1,53.036,89.909Z" transform="translate(104.155 64.139)" fill="#e4be88"/>
  <path id="Tracé_94" data-name="Tracé 94" d="M56.178,85.969a.8.8,0,0,1,.113,1.127c0,.019-.038.038-.056.056a.973.973,0,0,1-1.277.056.8.8,0,0,1-.113-1.127c0-.019.038-.038.056-.056A.973.973,0,0,1,56.178,85.969Z" transform="translate(95.115 60.678)" fill="#e4be88"/>
  <path id="Tracé_95" data-name="Tracé 95" d="M48.716,82.762a.805.805,0,0,1,.958-.582.1.1,0,0,1,.094.038.954.954,0,0,1,.582,1.146.805.805,0,0,1-.958.582.1.1,0,0,1-.094-.038A.954.954,0,0,1,48.716,82.762Z" transform="translate(112.439 57.518)" fill="#e4be88"/>
  <path id="Tracé_96" data-name="Tracé 96" d="M47.115,88.875a.8.8,0,0,1,.977-.582.113.113,0,0,1,.075.019.937.937,0,0,1,.582,1.146.776.776,0,0,1-.977.564A.113.113,0,0,1,47.7,90a.954.954,0,0,1-.582-1.146Z" transform="translate(117.045 62.882)" fill="#e4be88"/>
  <path id="Tracé_97" data-name="Tracé 97" d="M58.286,85.882a.816.816,0,0,1,.977-.582.113.113,0,0,1,.075.019.941.941,0,0,1,.582,1.127.776.776,0,0,1-.977.564.113.113,0,0,1-.075-.019.941.941,0,0,1-.582-1.127Z" transform="translate(84.893 60.258)" fill="#e4be88"/>
  <path id="Tracé_98" data-name="Tracé 98" d="M56.3,83.6a.8.8,0,0,1,.977-.564.113.113,0,0,1,.075.019.941.941,0,0,1,.582,1.127.816.816,0,0,1-.977.582.113.113,0,0,1-.075-.019.941.941,0,0,1-.582-1.127Z" transform="translate(90.621 58.261)" fill="#e4be88"/>
  <path id="Tracé_99" data-name="Tracé 99" d="M54.246,89.345a.8.8,0,0,1,.977-.582.113.113,0,0,1,.075.019.954.954,0,0,1,.582,1.146.8.8,0,0,1-.977.564.113.113,0,0,1-.075-.019.941.941,0,0,1-.582-1.127Z" transform="translate(96.521 63.295)" fill="#e4be88"/>
  <path id="Tracé_100" data-name="Tracé 100" d="M27.347,81.324a.8.8,0,0,1,.113,1.127c-.019.019-.038.056-.075.075a.952.952,0,0,1-1.277.056.8.8,0,0,1-.113-1.127c0-.019.038-.038.056-.056a.952.952,0,0,1,1.277-.056Z" transform="translate(178.138 56.608)" fill="#e4be88"/>
  <path id="Tracé_101" data-name="Tracé 101" d="M23.248,83.991a.8.8,0,0,1,.113,1.127c0,.019-.038.038-.056.056a.952.952,0,0,1-1.277.056.8.8,0,0,1-.113-1.127c.019-.019.038-.056.075-.075a.952.952,0,0,1,1.277-.056Z" transform="translate(189.9 58.918)" fill="#e4be88"/>
  <path id="Tracé_102" data-name="Tracé 102" d="M26.188,86.129a.8.8,0,0,1,.113,1.127c0,.019-.038.038-.056.056a.973.973,0,0,1-1.277.056.8.8,0,0,1-.113-1.127c0-.019.038-.038.056-.056A.973.973,0,0,1,26.188,86.129Z" transform="translate(181.438 60.819)" fill="#e4be88"/>
  <path id="Tracé_103" data-name="Tracé 103" d="M25.638,88.819a.8.8,0,0,1,.113,1.127c0,.019-.038.038-.056.056a.973.973,0,0,1-1.277.056.8.8,0,0,1-.113-1.127c0-.019.038-.038.056-.056A.973.973,0,0,1,25.638,88.819Z" transform="translate(183.021 63.181)" fill="#e4be88"/>
  <path id="Tracé_104" data-name="Tracé 104" d="M27.808,84.629a.8.8,0,0,1,.113,1.127c0,.019-.038.038-.056.056a.973.973,0,0,1-1.277.056.8.8,0,0,1-.113-1.127c0-.019.038-.038.056-.056A.973.973,0,0,1,27.808,84.629Z" transform="translate(176.775 59.501)" fill="#e4be88"/>
  <path id="Tracé_105" data-name="Tracé 105" d="M21.334,81.662a.805.805,0,0,1,.958-.582.1.1,0,0,1,.094.038.937.937,0,0,1,.582,1.146.816.816,0,0,1-.977.582.169.169,0,0,1-.094-.019.954.954,0,0,1-.582-1.146Z" transform="translate(191.289 56.552)" fill="#e4be88"/>
  <path id="Tracé_106" data-name="Tracé 106" d="M27.723,90.1a.816.816,0,0,1,.977-.582.113.113,0,0,1,.075.019.954.954,0,0,1,.582,1.146.828.828,0,0,1-.977.6.169.169,0,0,1-.094-.019A.941.941,0,0,1,27.7,90.1Z" transform="translate(172.915 63.965)" fill="#e4be88"/>
  <path id="Tracé_107" data-name="Tracé 107" d="M60.716,87.607c13.919-2.893,28.645-3.588,42.846-3.381.563,0,.751.657.094.657-14.125-.188-28.8.526-42.62,3.381-.47.113-1-.507-.338-.639h.019Z" transform="translate(36.762 59.303)" fill="#ddcca6"/>
  <path id="Tracé_108" data-name="Tracé 108" d="M60.9,88.507a101.118,101.118,0,0,1,24.363-2.179c.319,0,.432.432.056.413A99.888,99.888,0,0,0,61.1,88.92c-.282.075-.564-.338-.188-.413Z" transform="translate(54.632 61.165)" fill="#ddcca6"/>
  <path id="Tracé_109" data-name="Tracé 109" d="M57.092,96.139c12.191-4.283,25.452-6.687,38.375-8.227.507-.056.789.507.169.582C82.789,90.016,69.6,92.42,57.506,96.684,57.074,96.834,56.529,96.327,57.092,96.139Z" transform="translate(51.487 62.567)" fill="#ddcca6"/>
  <path id="Tracé_110" data-name="Tracé 110" d="M59.245,77.152c14.144,1.841,28.514,5.485,42.151,9.6.545.169.564.676-.075.47-13.562-4.095-27.856-7.7-41.888-9.523-.47-.075-.826-.639-.169-.564h0Z" transform="translate(41.821 53.097)" fill="#ddcca6"/>
  <path id="Tracé_111" data-name="Tracé 111" d="M57.359,99.437c8.4-4.64,17.9-7.514,27.274-9.523.376-.075.657.47.225.564-9.317,1.991-18.765,4.846-27.143,9.467-.3.169-.789-.3-.394-.526h.019Z" transform="translate(61.795 64.323)" fill="#ddcca6"/>
  <path id="Tracé_112" data-name="Tracé 112" d="M38.765,83.567c-9.655-2.893-19.892-3.588-29.772-3.381-.394,0-.526.657-.056.657,9.805-.188,20,.526,29.585,3.381.338.113.695-.507.244-.639h0Z" transform="translate(199.065 55.755)" fill="#ddcca6"/>
  <path id="Tracé_113" data-name="Tracé 113" d="M32.473,84.457a49.516,49.516,0,0,0-16.905-2.179c-.225,0-.3.432-.038.413A48.982,48.982,0,0,1,32.342,84.87C32.53,84.945,32.736,84.532,32.473,84.457Z" transform="translate(192.809 57.607)" fill="#ddcca6"/>
  <path id="Tracé_114" data-name="Tracé 114" d="M36.51,95.109c-8.472-4.283-17.676-6.687-26.654-8.227-.357-.056-.545.507-.131.582,8.9,1.521,18.089,3.926,26.485,8.19.3.15.676-.357.282-.545h.019Z" transform="translate(199.78 61.663)" fill="#ddcca6"/>
  <path id="Tracé_115" data-name="Tracé 115" d="M39.493,73.1c-9.824,1.841-19.8,5.485-29.265,9.6-.376.169-.394.676.056.47,9.411-4.095,19.347-7.7,29.1-9.523.338-.075.564-.639.113-.564h0Z" transform="translate(195.839 49.54)" fill="#ddcca6"/>
  <path id="Tracé_116" data-name="Tracé 116" d="M34.089,100.927A56.91,56.91,0,0,0,15.155,91.4c-.263-.075-.47.47-.15.564a56.648,56.648,0,0,1,18.821,9.486c.207.169.545-.3.263-.526Z" transform="translate(192.189 65.631)" fill="#ddcca6"/>
  <path id="Tracé_117" data-name="Tracé 117" d="M152.28,103.15s-18.934,34.806-58.718,30.693-66.1-18.314-66.1-18.314-4.752,37,69.613,32.928C163.607,144.812,152.28,103.15,152.28,103.15Z" transform="translate(49.785 75.956)" fill="#e8dabc"/>
  <path id="Tracé_118" data-name="Tracé 118" d="M137.793,53.629,122.259,27.971S111.777,15.4,107.908,13.62s-5.053,2.667-7.438,6.537S91.9,40.518,98.572,57.4A72.778,72.778,0,0,0,108.96,75.343L137.793,53.61Z" transform="translate(-63.044 -3.042)" fill="#dda96b"/>
  <path id="Tracé_119" data-name="Tracé 119" d="M123.547,51.182s-10.895-23.8-17.037-26.579-6.48,9.223-5.353,13.412,8.565,23.48,8.565,23.48L123.566,51.2Z" transform="translate(-58.359 6.599)" fill="#a07558"/>
  <path id="Tracé_120" data-name="Tracé 120" d="M60.608,33.828c5.579,4.414,11.1,9.523,15.14,15.4A16.462,16.462,0,0,1,78.6,55.317c.282,1.484-1.991,2.123-2.273.62-.751-3.945-3.851-7.382-6.443-10.256a98.722,98.722,0,0,0-8.941-8.565c-.657-.564-1.315-1.127-1.991-1.653-1.183-.958.47-2.611,1.672-1.672h0Z" transform="translate(65.666 14.786)" fill="#dda96b"/>
  <path id="Tracé_121" data-name="Tracé 121" d="M111.931,59.44a96.227,96.227,0,0,0-2.968,21.6c-.526,14.407,1.784,29.4,9.411,41.832a53.667,53.667,0,0,0,21.338,19.516c1.352.7.15,2.742-1.2,2.047a56.318,56.318,0,0,1-20.343-17.582,62.431,62.431,0,0,1-9.429-21.639c-2.949-12.566-2.8-25.809-.733-38.507a70.287,70.287,0,0,1,1.634-7.908,1.179,1.179,0,0,1,2.273.62h0Z" transform="translate(-86.057 36.266)" fill="#dda96b"/>
</svg>
