<?xml version="1.0" encoding="UTF-8"?>
<svg id="b27d9ef0-53d2-4afb-97db-a8649b3659b2" xmlns="http://www.w3.org/2000/svg" xmlns:xlink="http://www.w3.org/1999/xlink" viewBox="0 0 523.36 543.06">
  <defs>
    <style>
      .cls-1 {
        fill: #dda96b;
      }

      .cls-2 {
        fill: #fff;
      }

      .cls-3 {
        fill: #504c3c;
      }

      .cls-4 {
        fill: #ddcca6;
      }

      .cls-5 {
        fill: #0f0b07;
      }

      .cls-6 {
        fill: #f9efd7;
      }

      .cls-7 {
        clip-path: url(#clippath-2);
      }

      .cls-8 {
        fill: #efebd2;
      }

      .cls-9 {
        fill: #a07558;
      }

      .cls-10 {
        fill: #6300ff;
      }

      .cls-11 {
        fill: #80776c;
      }

      .cls-12 {
        fill: #e8dabc;
      }

      .cls-13 {
        clip-path: url(#clippath-1);
      }

      .cls-14 {
        fill: #bf905c;
      }

      .cls-15 {
        fill: #e4be88;
      }

      .cls-16 {
        fill: #724f35;
      }

      .cls-17 {
        fill: #171717;
      }

      .cls-18 {
        clip-path: url(#clippath);
      }

      .cls-19 {
        fill: none;
      }

      .cls-20 {
        fill: #fdfdff;
      }

      .cls-21 {
        fill: #3a291a;
      }

      .cls-22 {
        fill: #efcca3;
      }

      .cls-23 {
        fill: #261b10;
      }

      .cls-24 {
        fill: #6f634e;
      }
    </style>
    <clipPath id="clippath">
      <path class="cls-15" d="m421.76,409.92H107.02c-10.17-29.46,6.61-86.47,6.61-86.47-40.16-82.88,8.64-135.77,8.64-135.77,7.12-53.89,38.65-52.37,38.65-52.37l14.75-12.72c14.75-12.71,5.6-24.91,4.07-51.86-1.53-26.94,18.82-10.16,18.82-10.16,0,0,16.27,38.13,31.02,43.73,14.75,5.59,74.18,6.77,74.18,6.77,11.42-10.19,22.25-21.02,32.44-32.44,18.74-21.28,31.35-12.25,31.35-12.25,27.68,41.89,5.9,83.68,5.9,83.68,0,0,58.94,65.38,48.32,259.85Z"/>
    </clipPath>
    <clipPath id="clippath-1">
      <path class="cls-19" d="m230.45,204.22s10.38-11.51,19.39-20c9.42-8.88,27.12-1.95,39.59,13.64,0,0-3.96,18.9-35.19,18.9-20.93,0-23.79-12.53-23.79-12.53Z"/>
    </clipPath>
    <clipPath id="clippath-2">
      <circle class="cls-19" cx="262.77" cy="202.74" r="18.2" transform="translate(20.41 429.48) rotate(-80.75)"/>
    </clipPath>
  </defs>
  <g>
    <g>
      <path class="cls-15" d="m421.76,409.92H107.02c-10.17-29.46,6.61-86.47,6.61-86.47-40.16-82.88,8.64-135.77,8.64-135.77,7.12-53.89,38.65-52.37,38.65-52.37l14.75-12.72c14.75-12.71,5.6-24.91,4.07-51.86-1.53-26.94,18.82-10.16,18.82-10.16,0,0,16.27,38.13,31.02,43.73,14.75,5.59,74.18,6.77,74.18,6.77,11.42-10.19,22.25-21.02,32.44-32.44,18.74-21.28,31.35-12.25,31.35-12.25,27.68,41.89,5.9,83.68,5.9,83.68,0,0,58.94,65.38,48.32,259.85Z"/>
      <g class="cls-18">
        <g>
          <path class="cls-1" d="m181.11,116.33s23.79-12.76,35.92-14.82c12.13-2.06,13.42-5.3,13.42-5.3l-33.3-46.72-23,2.8,6.96,64.03Z"/>
          <path class="cls-14" d="m178.1,54.76s14.47,1.79,15.05,11.59c.59,9.8-3.58,22.11-.98,25.54,4.2,5.6,9.87,14.78,9.87,14.78,0,0,4.7-3.64,16.4-5.39,11.69-1.75,18.71-3.53,18.71-3.53l-32.74-45.55-26.31,2.56Z"/>
          <path class="cls-14" d="m303.77,111.07s-8.99,6.85,2.63,14.1c10.24,6.39,8.64,6.19,13.81,9.42s27.48,15.66,29.39,20.13,4.83,6.68,11.27,10.7c0,0,5.93,5.06,6.9,2.14,2.44-7.4,3.21-8.1,5.67-17.5,0,0,10.92-21.91,12.23-42.64,1.31-20.73-16.23-52.33-28.61-46.95-12.38,5.38-53.29,50.6-53.29,50.6Z"/>
        </g>
      </g>
    </g>
    <path class="cls-6" d="m395.4,339.81c-12.16-11.06-48.11,30.42-42.03,22.68,6.08-7.75-.63-26.79-8.93-20.8-8.3,5.99-33.86-21.34-1.57-42.86,32.29-21.52,15.3-52.08,20.39-67.62,5.09-15.54-12.54-20.3-45.32-23.72-32.78-3.42-17.05,1.22-35.41,15.22-18.36,14-32.78,11.2-32.78,11.2-3.5-7.61-22.18-2.26-27.99-5.37-5.82-3.11-32.38-2.28-40.63,0-8.25,2.28-15.94-4.42-27.45-7.7-18.82-5.36-11.88-28.7-8.17-38.06,3.72-9.36-3.69-9.59-13.08-6.73-2.7.82-6.1,3.78-9.56,7.57-.22,1.32-.42,2.67-.6,4.06,0,0-48.81,52.89-8.64,135.77,0,0-16.78,57-6.61,86.47h306.78c10.38-25.26-7.11-59.83-18.4-70.1Z"/>
    <path class="cls-22" d="m212.62,177.8s10.08-16.1,27.76-21.6c6.3-1.97,41.25,20.93,45.55,30.16,4.3,9.23-13.54,24.97-13.54,24.97l-40.01-9.5s-4.99,44.71-27.76,51.68c-22.77,6.96-26.76-3.95-26.76-3.95,0,0-63.56-10.67-36.48-24.71,27.08-14.05,39.28-39.72,39.28-39.72,0,0-5.28-8.09-13.3-7.47-8.02.62,6.77-28.78,6.77-28.78,0,0,10.01-6.05,17.39-6.65,12.92-1.04,12.15,33.82,12.15,33.82l8.94,1.75Z"/>
    <path class="cls-8" d="m248.08,161.69s-49.84,28.39-11.48,36.2l24.63-13.39,28.18,13.37s-8.82-42.94-41.33-36.18Z"/>
    <path class="cls-6" d="m157.8,186.58s-7.82-29.2,22.75-42.21c30.58-13,.15,36.97-1.03,43.81-1.18,6.84-35.05,16.1-14.47-18.48"/>
    <path class="cls-24" d="m153.66,184.48s-2.32,12.91,16.8,14.05l8.62-9.34-25.42-4.7Z"/>
    <path class="cls-5" d="m153.66,182.25s1.78-17.28,18.62-14.85c16.85,2.43,4.72,23.03,2.9,24.55-1.81,1.52-20.31,8.79-21.53-9.7Z"/>
    <ellipse class="cls-20" cx="168.91" cy="182.79" rx="11.07" ry="11.72" transform="translate(-6.65 6.38) rotate(-2.12)"/>
    <path class="cls-3" d="m178.42,189.92c-3.84,4.56-10.98,4.37-14.89-.22-3.91-4.6-3.95-12.01-.12-16.56,3.84-4.55,11.2-4.95,15.07-.36,3.87,4.59,3.77,12.59-.06,17.15Z"/>
    <circle class="cls-23" cx="172.95" cy="179.77" r="8.19"/>
    <path class="cls-2" d="m162.46,174.18c.3-.78,2.74-.58,5.46.45,2.72,1.03,4.69,2.5,4.39,3.28-.3.78-2.74.58-5.46-.45-2.72-1.03-4.69-2.5-4.39-3.28Z"/>
    <path class="cls-24" d="m289.44,198.53s-4.47,25.31-37.63,21.23c0,0-16.41.06-20.66-13.74l53.76-11.24,4.53,3.75Z"/>
    <g class="cls-13">
      <g>
        <path class="cls-5" d="m230.45,204.22s10.38-11.51,19.39-20c9.42-8.88,27.12-1.95,39.59,13.64,0,0-3.96,18.9-35.19,18.9-20.93,0-23.79-12.53-23.79-12.53Z"/>
        <circle class="cls-20" cx="262.77" cy="202.73" r="18.2"/>
        <g class="cls-7">
          <g>
            <circle class="cls-3" cx="268.01" cy="203.25" r="14.57" transform="translate(24.45 435.24) rotate(-80.78)"/>
            <circle class="cls-23" cx="272.79" cy="202.4" r="9.67"/>
            <path class="cls-2" d="m256.68,191.75c.44-1.15,3.38-1.11,6.58.1,3.2,1.21,5.43,3.13,4.99,4.28-.44,1.15-3.38,1.11-6.58-.1s-5.43-3.13-4.99-4.28Z"/>
          </g>
        </g>
      </g>
    </g>
    <path class="cls-11" d="m174.16,272.46c-.17-6.18-1.86-10.44-4.6-13.3-2.86-3-37.02-13.72-37.02-13.72,0,0-9.87,14.47,0,33.29l10.13,19.27s4.9,10.04,43.58,9.06c38.68-.98,48.99-18.85,48.99-18.85,0,0-1.47-6.12-14.7-1.22-13.23,4.89-22.63,6.18-28.86,5.75-11.81-.81-17.5-8.94-17.5-8.94l-.03-11.33Z"/>
    <path class="cls-21" d="m132.42,232.36s5.2-14.46,27.76-10.99c22.56,3.47,24.29,13.89,24.29,13.89,0,0,6.94,30.09-32.39,30.09,0,0-19.66-4.05-19.66-22.32v-10.68Z"/>
    <path class="cls-23" d="m137.27,236.72s1.4-4.3,4.9-2.3c3.5,2.01,4.59,10.33,1.72,10.9-3.23.64-3.75-1.43-6.62-8.61Z"/>
    <path class="cls-23" d="m172.29,248.03c-1.68,1.14-3.7,1.65-5.72,1.45-3.42-.5-11.9-3.63-7.06-11.44,0,0,1.4-2.66,4.02-2.1,2.62.56,4.95,4.29,5.28,11.31,1.08.55,2.27.81,3.48.78Z"/>
    <path class="cls-16" d="m141.38,229.39c3.99-.03,7.99.14,11.96.52,6.83.61,14.21,1.54,20.37,4.74.99.52,1.87-.98.87-1.5-6.24-3.23-13.56-4.25-20.47-4.9-4.23-.43-8.48-.62-12.74-.59-.48,0-.87.39-.87.87,0,.48.39.87.87.87h0Z"/>
    <path class="cls-23" d="m150.42,264.88s-1.16-24.38.06-23.17c1.22,1.22,1.6,23.65,1.6,23.65l-1.66-.48Z"/>
    <path class="cls-23" d="m137.27,277.43s11.04.98,13.72-1.96c0,0,16.68,10.04,23.16,8.32,0,0,11.6,9.8,24.1,7.84,8.6-1.44,17.12-3.35,25.52-5.7,0,0-15.97,8.4-34.33,7.66-18.36-.73-52.63-5.39-52.16-16.16Z"/>
    <path class="cls-15" d="m193.3,262.41c-.5.42-.57,1.16-.15,1.67.02.03.05.06.08.08.51.51,1.33.54,1.88.08.5-.41.58-1.15.17-1.65-.03-.03-.06-.07-.09-.1-.51-.51-1.34-.55-1.89-.08Z"/>
    <path class="cls-15" d="m185.4,268.49c-.5.41-.58,1.14-.17,1.64.03.04.06.07.1.11.51.51,1.33.54,1.88.08.5-.42.57-1.16.15-1.67-.02-.03-.05-.06-.08-.08-.51-.51-1.33-.54-1.88-.08Z"/>
    <path class="cls-15" d="m190.65,274.46c-.5.42-.57,1.17-.15,1.68.02.03.05.06.07.08.51.5,1.32.54,1.88.08.5-.42.57-1.16.15-1.67-.02-.03-.05-.06-.08-.08-.51-.51-1.32-.54-1.88-.08Z"/>
    <path class="cls-15" d="m191.98,281.85c-.5.42-.57,1.17-.15,1.68.02.03.04.05.07.07.51.5,1.32.54,1.88.08.5-.42.57-1.17.15-1.68-.02-.03-.04-.05-.07-.07-.51-.5-1.32-.54-1.88-.08Z"/>
    <path class="cls-15" d="m200.64,270.96c-.5.42-.57,1.16-.15,1.67.02.03.05.06.08.08.51.5,1.32.53,1.87.08.5-.41.58-1.15.17-1.65-.03-.03-.06-.07-.09-.1-.51-.5-1.32-.54-1.88-.08Z"/>
    <path class="cls-15" d="m186.14,261.59c-.16-.63-.79-1.01-1.42-.85-.05.01-.09.03-.13.04-.67.25-1.05.98-.86,1.67.16.63.79,1.01,1.42.85.05-.01.09-.03.13-.04.67-.25,1.05-.98.86-1.67Z"/>
    <path class="cls-15" d="m181.73,278.46c-.16-.63-.81-1.01-1.44-.85-.04,0-.07.02-.11.03-.68.25-1.06.98-.87,1.68.17.63.81,1.01,1.45.84.04-.01.08-.02.12-.04.67-.25,1.05-.98.86-1.67Z"/>
    <path class="cls-15" d="m212.57,270.21c-.16-.63-.8-1.01-1.43-.84-.04.01-.08.02-.12.04-.67.25-1.04.97-.86,1.67.17.63.81,1.01,1.45.84.04-.01.08-.02.12-.04.67-.26,1.04-.97.85-1.67Z"/>
    <path class="cls-15" d="m207.08,263.92c-.17-.63-.82-1.01-1.45-.84-.04,0-.07.02-.11.03-.67.25-1.04.97-.86,1.67.16.63.8,1.01,1.43.84.04-.01.08-.02.12-.04.67-.25,1.04-.97.86-1.67Z"/>
    <path class="cls-15" d="m201.42,279.78c-.16-.63-.81-1.01-1.44-.85-.04,0-.07.02-.11.03-.67.25-1.05.98-.86,1.67.17.63.82,1.01,1.45.84.04,0,.07-.02.11-.03.67-.25,1.04-.97.86-1.67Z"/>
    <path class="cls-15" d="m120.98,258.15c-.5.41-.58,1.14-.17,1.64.03.04.06.07.1.11.51.51,1.33.54,1.88.08.5-.42.57-1.16.15-1.67-.02-.03-.05-.06-.08-.08-.51-.51-1.33-.54-1.88-.08Z"/>
    <path class="cls-15" d="m109.73,265.47c-.5.42-.57,1.16-.15,1.67.02.03.05.06.08.08.51.51,1.33.54,1.88.08.5-.41.58-1.14.17-1.64-.03-.04-.06-.07-.1-.11-.51-.51-1.33-.54-1.88-.08Z"/>
    <path class="cls-15" d="m117.83,271.41c-.5.42-.58,1.16-.16,1.66.02.03.05.06.08.08.51.5,1.32.54,1.88.08.5-.42.57-1.16.15-1.67-.02-.03-.05-.06-.08-.08-.51-.5-1.32-.53-1.87-.08Z"/>
    <path class="cls-15" d="m116.31,278.83c-.5.42-.57,1.16-.15,1.67.02.03.05.06.08.08.51.5,1.32.54,1.88.08.5-.42.57-1.16.15-1.67-.02-.03-.05-.06-.08-.08-.51-.5-1.32-.54-1.88-.08Z"/>
    <path class="cls-15" d="m122.31,267.25c-.5.42-.57,1.16-.15,1.67.02.03.05.06.08.08.51.5,1.32.54,1.88.08.5-.42.57-1.16.15-1.67-.02-.03-.05-.06-.08-.08-.51-.5-1.32-.54-1.88-.08Z"/>
    <path class="cls-15" d="m110.48,258.57c-.16-.63-.79-1.01-1.42-.85-.05.01-.09.03-.13.04-.68.25-1.05.97-.87,1.67.16.63.8,1.01,1.43.85.04-.01.09-.03.13-.04.67-.25,1.05-.98.86-1.67Z"/>
    <path class="cls-15" d="m128.11,281.86c-.16-.63-.8-1.01-1.43-.84-.04.01-.08.02-.12.04-.67.25-1.05.98-.86,1.67.15.63.79,1.02,1.43.87.04-.01.08-.02.13-.04.69-.25,1.06-1,.86-1.7Z"/>
    <path class="cls-4" d="m279.76,271.36c-20.45-4.24-42.12-5.27-62.99-4.98-.83,0-1.11.97-.13.97,20.76-.29,42.32.76,62.64,4.97.7.15,1.46-.76.5-.95h-.03Z"/>
    <path class="cls-4" d="m253.21,275.4c-11.62-2.72-23.93-3.38-35.8-3.2-.48,0-.64.62-.08.62,11.8-.18,24.05.49,35.59,3.2.41.1.83-.49.29-.62Z"/>
    <path class="cls-4" d="m263.42,288.67c-17.91-6.3-37.41-9.84-56.41-12.09-.75-.09-1.15.75-.25.86,18.9,2.24,38.26,5.78,56.07,12.04.63.22,1.43-.52.59-.81Z"/>
    <path class="cls-4" d="m274.48,246.86c-20.78,2.72-41.91,8.06-61.96,14.11-.8.24-.83,1.01.12.7,19.93-6.01,40.96-11.31,61.59-14,.7-.1,1.21-.94.24-.82h.02Z"/>
    <path class="cls-4" d="m247.89,296.11c-12.35-6.83-26.31-11.04-40.1-14-.55-.12-.98.7-.33.82,13.7,2.93,27.59,7.13,39.89,13.92.43.24,1.15-.44.57-.76l-.03.02Z"/>
    <path class="cls-4" d="m73.43,260.18c14.2-4.24,29.25-5.27,43.75-4.98.57,0,.77.97.08.97-14.42-.29-29.39.76-43.49,4.97-.5.15-1.01-.76-.35-.95h0Z"/>
    <path class="cls-4" d="m91.87,264.23c8.07-2.72,16.61-3.38,24.86-3.2.33,0,.44.62.05.62-8.19-.18-16.69.49-24.7,3.2-.29.1-.58-.49-.2-.62Z"/>
    <path class="cls-4" d="m75.69,285.84c12.44-6.3,25.98-9.84,39.19-12.09.52-.09.8.75.18.85-13.1,2.25-26.59,5.78-38.93,12.04-.44.22-1-.51-.42-.8h-.03Z"/>
    <path class="cls-4" d="m77.1,235.68c14.43,2.72,29.1,8.06,43.03,14.11.55.24.57,1.01-.09.7-13.84-6.01-28.43-11.31-42.77-14-.5-.1-.84-.94-.17-.82h0Z"/>
    <path class="cls-4" d="m90.43,300.22c8.57-6.83,18.27-11.04,27.85-14,.38-.12.7.7.22.82-9.51,2.95-19.15,7.15-27.67,13.94-.3.24-.8-.44-.4-.76Z"/>
    <path class="cls-12" d="m126.01,318.66s27.83,51.17,86.31,45.11c58.47-6.06,97.17-26.92,97.17-26.92,0,0,7,54.41-102.33,48.41-97.79-5.35-81.15-66.6-81.15-66.6Z"/>
    <path class="cls-1" d="m313.17,129.75l22.82-37.73s15.4-18.46,21.09-21.09c5.69-2.62,7.43,3.92,10.92,9.61,3.5,5.69,12.6,29.92,2.8,54.76-3.81,9.47-8.95,18.35-15.26,26.38l-42.38-31.93Z"/>
    <path class="cls-9" d="m327.21,140.33s16.03-34.99,25.05-39.07c9.03-4.08,9.52,13.56,7.88,19.71-1.64,6.16-12.6,34.5-12.6,34.5l-20.34-15.14Z"/>
    <path class="cls-1" d="m237.42,126.84c-8.2,6.5-16.31,14-22.26,22.65-1.85,2.69-3.58,5.7-4.2,8.94-.41,2.18,2.93,3.11,3.35.92,1.1-5.79,5.65-10.86,9.48-15.07,4.12-4.47,8.51-8.68,13.16-12.6.97-.83,1.94-1.64,2.93-2.44,1.75-1.4-.7-3.83-2.46-2.45v.03Z"/>
    <path class="cls-1" d="m385.02,196.08c2.8,10.25,3.99,21.16,4.37,31.75.76,21.18-2.61,43.2-13.84,61.5-7.59,12.36-18.53,22.06-31.37,28.69-1.98,1.03-.23,4.02,1.76,3,11.9-6.08,22.16-14.94,29.9-25.84,6.69-9.53,11.2-20.5,13.85-31.82,4.33-18.48,4.1-37.93,1.06-56.6-.58-3.92-1.38-7.8-2.39-11.63-.59-2.15-3.94-1.24-3.35.92h0Z"/>
  </g>
  <g>
    <path class="cls-17" d="m57.71,431.36h7.8l17.61,41.18h.16l17.69-41.18h7.8v56.3h-7.4v-41.1h-.16l-15.28,34.75h-5.47l-15.2-34.75h-.16v41.1h-7.4v-56.3Z"/>
    <path class="cls-17" d="m119.64,480.02v-24.69l7.72-7.72h20.99l7.72,7.72v14.64h-28.95v7.72l3.54,3.54h14.4l3.54-3.46v-2.73h7.4v4.99l-7.56,7.64h-21.15l-7.64-7.64Zm28.95-15.93v-6.51l-3.62-3.54h-14.24l-3.62,3.54v6.51h21.47Z"/>
    <path class="cls-17" d="m166.13,447.6h7.16v7.32l7.32-7.32h9.73l6.03,6.03,5.95-6.03h13.11l7.8,7.8v32.25h-7.48v-29.92l-3.62-3.62h-8.12l-5.23,5.23v28.31h-7.24v-30l-3.54-3.54h-6.11l-8.28,8.28v25.26h-7.48v-40.05Z"/>
    <path class="cls-17" d="m233.29,480.02v-24.69l7.72-7.72h20.99l7.72,7.72v14.64h-28.95v7.72l3.54,3.54h14.4l3.54-3.46v-2.73h7.4v4.99l-7.56,7.64h-21.15l-7.64-7.64Zm28.95-15.93v-6.51l-3.62-3.54h-14.24l-3.62,3.54v6.51h21.47Z"/>
    <path class="cls-17" d="m303.26,476.48h-27.51v-9.97l24.37-35.15h10.86v38.37h6.84v6.76h-6.84v11.18h-7.72v-11.18Zm.16-6.51v-31.13h-.4l-19.71,28.63v2.49h20.11Z"/>
    <path class="cls-10" d="m322.48,484.92v-4.02l2.74-2.73h4.26l2.73,2.73v4.02l-2.73,2.73h-4.26l-2.74-2.73Z"/>
    <path class="cls-10" d="m339.7,479.94v-24.61l7.72-7.72h15.6l5.95,5.23v-22.6h7.48v57.43h-7.16v-6.92l-6.92,6.92h-14.96l-7.72-7.72Zm21.47,1.21l7.8-7.88v-12.95l-7-6.19h-11.1l-3.7,3.7v19.62l3.7,3.7h10.29Z"/>
    <path class="cls-10" d="m386.91,480.02v-24.69l7.72-7.72h20.99l7.72,7.72v14.64h-28.95v7.72l3.54,3.54h14.4l3.54-3.46v-2.73h7.4v4.99l-7.56,7.64h-21.15l-7.64-7.64Zm28.95-15.93v-6.51l-3.62-3.54h-14.24l-3.62,3.54v6.51h21.47Z"/>
    <path class="cls-10" d="m427.77,447.6h7.72l11.1,32.01h.32l11.02-32.01h7.72l-14.88,40.05h-8.04l-14.96-40.05Z"/>
  </g>
</svg>